<svg id="ePcN5JYnrCT1" xmlns="http://www.w3.org/2000/svg" xmlns:xlink="http://www.w3.org/1999/xlink" viewBox="0 0 300 300" shape-rendering="geometricPrecision" text-rendering="geometricPrecision" project-id="e36d1a2d537c43ab9c677507e4c2701d" export-id="d11fe00ae38b4cb1b201d1f20010189a" cached="false"><g transform="matrix(1.134435 0 0 1.133313-20.165274-28.786113)"><g transform="matrix(.111624 0 0-.109747-17.9941 323.345)"><path d="M1311,2631c-130-33-234-93-337-196-77-76-98-105-137-185-46-92-87-225-87-280c0-18-10-34-31-49-65-48-69-64-69-291c0-184,2-208,19-236c26-43,79-81,148-109c54-22,61-28,98-95c22-39,61-95,88-125l47-54v-143-144L788,612C643,550,507,490,485,477c-36-20-85-77-85-98c0-5,497-9,1105-9s1105,3,1105,8c0,4-9,22-20,40-24,39-81,67-427,212l-223,93v144v144l54,67c29,37,68,92,85,123c29,51,37,58,91,78c72,27,137,74,165,121c18,32,20,52,20,230c0,184-1,197-22,230-12,19-35,44-52,54-25,17-30,29-36,75-36,303-231,540-520,631-100,32-310,37-414,11Zm399-246c201-61,353-220,405-424c14-54,16-106,13-320-5-295-11-321-100-458-65-100-207-240-278-275-156-77-372-78-522-2-140,71-297,282-343,459-20,81-21,480-1,577c49,228,233,411,459,454c93,18,291,12,367-11ZM730,1635c0-204-1-215-19-215-10,0-22,7-25,16-8,20-8,378,0,398c3,9,15,16,25,16c18,0,19-11,19-215Zm1579,201c8-9,11-75,9-217-3-185-5-204-20-207-17-3-18,12-18,217c0,122,4,221,9,221s14-6,20-14ZM1495,549.330467c67-51,110,.999999,230-.000001c142-2,33.266367-72.999999,142.266367.000001c29,19,65.733633,62.669534,72.733633,62.669534s-40,306.999999-40,237.999999v-100h-405-405l138-200.669533c0,52,47.081246,77.669533,50.081246,80.669533c8,8,159.918754-36.669533,216.918754-80.669533Z"/></g><path d="M44.92,26.92L21.66,67.22c-1.041244,1.81171-1.038969,4.040804.005971,5.850385s2.97442,2.925812,5.064029,2.929615h46.54c2.097583.003896,4.037275-1.11366,5.085963-2.930285s1.046414-4.055225-.005963-5.869715L55.08,26.92c-1.045448-1.818068-2.98278-2.938836-5.08-2.938836s-4.034552,1.120768-5.08,2.938836Z" transform="matrix(0 1.5-1.34 0 226.51 68.6961)" fill="#7c3aed"/></g></svg>
